<?xml version="1.0" encoding="UTF-8"?>
<svg width="100" height="100" cursor="pointer" style="height:100px;left:50%;position:absolute;top:50%;transform:translate(-50%, -50%) scale(1.04319);width:100px;z-index:0" viewBox="0 0 80 80" xmlns="http://www.w3.org/2000/svg">
<g transform="matrix(.81154 0 0 .81154 -9.7364 -7.3173)" fill="#46cdcf" featurekey="nLBmSA-0">
<path d="m34.801 27.5c-6.3 0-11.5 5.2-11.5 11.5v3.5h-13.5c-0.8 0-1.5 0.7-1.5 1.5s0.7 1.5 1.5 1.5h13.5v7h-13.5c-0.8 0-1.5 0.7-1.5 1.5s0.7 1.5 1.5 1.5h13.5v7h-13.5c-0.8 0-1.5 0.7-1.5 1.5s0.7 1.5 1.5 1.5h13.5v7h-13.5c-0.8 0-1.5 0.7-1.5 1.5s0.7 1.5 1.5 1.5h13.5v7h-13.5c-0.8 0-1.5 0.7-1.5 1.5s0.7 1.5 1.5 1.5h13.5v3.5c0 6.3 5.2 11.5 11.5 11.5h58.398c6.3 0 11.5-5.2 11.5-11.5v-3.5h0.10156 15c0.8 0 1.5-0.7 1.5-1.5s-0.7-1.5-1.5-1.5h-15-0.10156v-7h0.10156 15c0.8 0 1.5-0.7 1.5-1.5s-0.7-1.5-1.5-1.5h-15-0.10156v-7h0.10156 15c0.8 0 1.5-0.7 1.5-1.5s-0.7-1.5-1.5-1.5h-15-0.10156v-7h0.10156 15c0.8 0 1.5-0.7 1.5-1.5s-0.7-1.5-1.5-1.5h-15-0.10156v-7h0.10156 15c0.8 0 1.5-0.7 1.5-1.5s-0.7-1.5-1.5-1.5h-15-0.10156v-3.5c0-6.3-5.2-11.5-11.5-11.5h-58.398zm0 3h58.398c4.7 0 8.5 3.8 8.5 8.5v50c0 4.7-3.8 8.5-8.5 8.5h-58.398c-4.7 0-8.5-3.8-8.5-8.5v-50c0-4.7 3.8-8.5 8.5-8.5zm10 12.5c-3.6 0-6.5 2.9-6.5 6.5 0 3.1 2.2 5.6008 5 6.3008v23.199c0 0.8 0.7 1.5 1.5 1.5h32.6c0.5 3.1 3.2004 5.5 6.4004 5.5 3.6 0 6.5-2.9 6.5-6.5s-2.9-6.5-6.5-6.5c-2.9 0-5.3012 1.9-6.2012 4.5h-31.299v-21.699c2.9-0.7 5-3.3008 5-6.3008 0-3.6-2.9-6.5-6.5-6.5zm39 0c-3.6 0-6.5 2.9-6.5 6.5 0 0.8 0.098438 1.4992 0.39844 2.1992l-9.3984 6.1016c-1.2-1.1-2.7-1.8008-4.5-1.8008-3.6 0-6.5 2.9-6.5 6.5s2.9 6.5 6.5 6.5 6.5-2.9 6.5-6.5c0-0.8-0.10039-1.4992-0.40039-2.1992l9.4004-6.1016c1.2 1.1 2.7 1.8008 4.5 1.8008 3.6 0 6.5-2.9 6.5-6.5s-2.9-6.5-6.5-6.5zm-39 3c1.9 0 3.5 1.6 3.5 3.5s-1.6 3.5-3.5 3.5-3.5-1.6-3.5-3.5 1.6-3.5 3.5-3.5zm39 0c1.9 0 3.5 1.6 3.5 3.5s-1.5 3.5-3.5 3.5-3.5-1.6-3.5-3.5 1.6-3.5 3.5-3.5zm-20 13c1.9 0 3.5 1.6 3.5 3.5s-1.5 3.5-3.5 3.5-3.5-1.6-3.5-3.5 1.6-3.5 3.5-3.5zm20 17c1.9 0 3.5 1.6 3.5 3.5s-1.5 3.5-3.5 3.5-3.5-1.6-3.5-3.5 1.6-3.5 3.5-3.5z" fill="#46cdcf" style="" xmlns="http://www.w3.org/2000/svg"/>
</g>
</svg>
