<?xml version="1.0" encoding="UTF-8"?>
<svg width="383.3" height="74.242" cursor="pointer" style="height:74.2423px;left:50%;position:absolute;top:50%;transform:translate(-50%, -50%) scale(1.04319);width:383.296px;z-index:0" viewBox="0 0 400 80" xmlns="http://www.w3.org/2000/svg">
<g transform="matrix(1.3266 0 0 1.3266 119.8 28.189)" fill="#EDF0F1" featurekey="VBdsdk-0">
<path d="m16.38 20.3c-0.24 0-0.44666-0.08666-0.62-0.26s-0.26-0.38-0.26-0.62v-10.42l-5.24 10.8c-0.08 0.14666-0.19334 0.26666-0.34 0.36s-0.3 0.14-0.46 0.14-0.31334-0.04666-0.46-0.14-0.26-0.21334-0.34-0.36l-5.24-10.8v10.42c0 0.24-0.08334 0.44666-0.25 0.62s-0.37666 0.26-0.63 0.26c-0.24 0-0.44666-0.08666-0.62-0.26s-0.26-0.38-0.26-0.62v-14.02c0-0.24 0.08666-0.44666 0.26-0.62s0.38-0.26 0.62-0.26c0.36 0 0.62666 0.16 0.8 0.48l6.12 12.42 6.12-12.42c0.17334-0.32 0.44-0.48 0.8-0.48 0.24 0 0.44666 0.08666 0.62 0.26s0.26 0.38 0.26 0.62v14.02c0 0.24-0.08666 0.44666-0.26 0.62s-0.38 0.26-0.62 0.26zm5.1 0c-0.25334 0-0.46668-0.08666-0.64002-0.26s-0.26-0.38-0.26-0.62v-14.02c0-0.24 0.08666-0.44666 0.26-0.62s0.38668-0.26 0.64002-0.26c0.24 0 0.44666 0.08666 0.62 0.26s0.26 0.38 0.26 0.62v14.02c0 0.24-0.08666 0.44666-0.26 0.62s-0.38 0.26-0.62 0.26zm10 0-4.92-3.9062e-5c-0.16 0-0.31334-0.04666-0.46-0.14s-0.25332-0.21334-0.31998-0.36c-0.12-0.21334-0.13334-0.45334-0.04-0.72v-13.68c0-0.24 0.08666-0.44666 0.26-0.62s0.38668-0.26 0.64002-0.26h4.82c1.0533 0 2.0134 0.22666 2.88 0.68s1.6067 1.0467 2.22 1.78 1.0867 1.5667 1.42 2.5 0.5 1.88 0.5 2.84c0 1.1867-0.20334 2.27-0.61 3.25s-0.94 1.82-1.6 2.52-1.41 1.2433-2.25 1.63-1.6867 0.58-2.54 0.58zm-0.02-14.02-3.94-7.8126e-5v12.26h3.96c0.76 0 1.4567-0.18334 2.09-0.55s1.1833-0.84332 1.65-1.43 0.83-1.2533 1.09-2 0.39-1.4933 0.39-2.24c0-0.76-0.12666-1.5033-0.38-2.23s-0.61-1.3733-1.07-1.94-1.0133-1.02-1.66-1.36-1.3567-0.51-2.13-0.51zm15.7 14.02-4.92-3.9062e-5c-0.16 0-0.31334-0.04666-0.46-0.14s-0.25332-0.21334-0.31998-0.36c-0.12-0.21334-0.13334-0.45334-0.04-0.72v-13.68c0-0.24 0.08666-0.44666 0.26-0.62s0.38668-0.26 0.64002-0.26h4.82c1.0533 0 2.0134 0.22666 2.88 0.68s1.6067 1.0467 2.22 1.78 1.0867 1.5667 1.42 2.5 0.5 1.88 0.5 2.84c0 1.1867-0.20334 2.27-0.61 3.25s-0.94 1.82-1.6 2.52-1.41 1.2433-2.25 1.63-1.6867 0.58-2.54 0.58zm-0.02-14.02-3.94-7.8126e-5v12.26h3.96c0.76 0 1.4567-0.18334 2.09-0.55s1.1833-0.84332 1.65-1.43 0.83-1.2533 1.09-2 0.39-1.4933 0.39-2.24c0-0.76-0.12666-1.5033-0.38-2.23s-0.61-1.3733-1.07-1.94-1.0133-1.02-1.66-1.36-1.3567-0.51-2.13-0.51zm21.86 13.94c-0.10666 0.05334-0.21992 0.08-0.33992 0.08-0.17334 0-0.33668-0.04666-0.49002-0.14s-0.26334-0.22668-0.33-0.40002l-1.58-3.72h-7.26l-1.58 3.72c-0.09334 0.22666-0.25334 0.38666-0.48 0.48s-0.45332 0.08668-0.67998-0.01998c-0.22666-0.09334-0.38666-0.25334-0.48-0.48s-0.08668-0.45332 0.01998-0.67998l1.8-4.26 4.22-9.88c0.06666-0.17334 0.17332-0.30668 0.31998-0.40002s0.31332-0.14 0.49998-0.14c0.17334 0 0.33334 0.04666 0.48 0.14s0.25332 0.22668 0.31998 0.40002c1.0133 2.3734 2.02 4.73 3.02 7.07s2.0066 4.6966 3.02 7.07c0.09334 0.22666 0.09334 0.45332 0 0.67998s-0.25334 0.38666-0.48 0.48zm-6.36-12.68-2.88 6.72h5.74zm16.52-1.7-4.54 8.12v5.46c0 0.24-0.08666 0.44666-0.26 0.62s-0.38 0.26-0.62 0.26-0.44666-0.08666-0.62-0.26-0.26-0.38-0.26-0.62v-5.46l-4.54-8.12c-0.08-0.13334-0.12-0.28-0.12-0.44 0-0.24 0.08666-0.44666 0.26-0.62s0.38-0.26 0.62-0.26c0.16 0 0.31 0.04 0.45 0.12s0.25 0.18666 0.33 0.32l3.88 6.94 3.88-6.94c0.08-0.13334 0.19-0.24 0.33-0.32s0.29-0.12 0.45-0.12c0.24 0 0.44666 0.08666 0.62 0.26s0.26 0.38 0.26 0.62c0 0.16-0.04 0.30666-0.12 0.44zm14.72 14.46-4.92-3.9062e-5c-0.16 0-0.31334-0.04666-0.46-0.14s-0.25332-0.21334-0.31998-0.36c-0.12-0.21334-0.13334-0.45334-0.04-0.72v-13.68c0-0.24 0.08666-0.44666 0.26-0.62s0.38668-0.26 0.64002-0.26h4.82c1.0533 0 2.0134 0.22666 2.88 0.68s1.6067 1.0467 2.22 1.78 1.0867 1.5667 1.42 2.5 0.5 1.88 0.5 2.84c0 1.1867-0.20334 2.27-0.61 3.25s-0.94 1.82-1.6 2.52-1.41 1.2433-2.25 1.63-1.6867 0.58-2.54 0.58zm-0.02-14.02-3.94-7.8126e-5v12.26h3.96c0.76 0 1.4567-0.18334 2.09-0.55s1.1833-0.84332 1.65-1.43 0.83-1.2533 1.09-2 0.39-1.4933 0.39-2.24c0-0.76-0.12666-1.5033-0.38-2.23s-0.61-1.3733-1.07-1.94-1.0133-1.02-1.66-1.36-1.3567-0.51-2.13-0.51zm17.68 14.02-6.88-1.9531e-5c-0.25334 0-0.46668-0.08666-0.64002-0.26s-0.26-0.38-0.26-0.62v-0.04-0.04-13.94c0-0.24 0.08666-0.44666 0.26-0.62s0.38668-0.26 0.64002-0.26h6.88c0.25334 0 0.46668 0.08666 0.64002 0.26s0.26 0.38 0.26 0.62c0 0.25334-0.08666 0.46334-0.26 0.63s-0.38668 0.25-0.64002 0.25h-6v5.1h5.06c0.24 0 0.44666 0.08334 0.62 0.25s0.26 0.37666 0.26 0.63c0 0.24-0.08666 0.44666-0.26 0.62s-0.38 0.26-0.62 0.26h-5.06v5.38h6c0.25334 0 0.46668 0.08666 0.64002 0.26s0.26 0.38668 0.26 0.64002c0 0.24-0.08666 0.44666-0.26 0.62s-0.38668 0.26-0.64002 0.26zm14.64-14.7-5.7 14.14c-0.06666 0.17334-0.17332 0.31-0.31998 0.41s-0.31332 0.15-0.49998 0.15-0.35332-0.05-0.49998-0.15-0.25332-0.23666-0.31998-0.41l-5.72-14.14c-0.04-0.09334-0.06-0.20668-0.06-0.34002 0-0.24 0.08666-0.44666 0.26-0.62s0.38-0.26 0.62-0.26c0.18666 0 0.35666 0.05 0.51 0.15s0.26334 0.23666 0.33 0.41l4.88 12.1 4.88-12.1c0.06666-0.17334 0.17332-0.31 0.31998-0.41s0.31332-0.15 0.49998-0.15c0.25334 0 0.46668 0.08666 0.64002 0.26s0.26 0.38 0.26 0.62c0 0.13334-0.02666 0.24668-0.08 0.34002zm9.64 14.7-6.88-1.9531e-5c-0.25334 0-0.46668-0.08666-0.64002-0.26s-0.26-0.38-0.26-0.62v-0.04-0.04-13.94c0-0.24 0.08666-0.44666 0.26-0.62s0.38668-0.26 0.64002-0.26h6.88c0.25334 0 0.46668 0.08666 0.64002 0.26s0.26 0.38 0.26 0.62c0 0.25334-0.08666 0.46334-0.26 0.63s-0.38668 0.25-0.64002 0.25h-6v5.1h5.06c0.24 0 0.44666 0.08334 0.62 0.25s0.26 0.37666 0.26 0.63c0 0.24-0.08666 0.44666-0.26 0.62s-0.38 0.26-0.62 0.26h-5.06v5.38h6c0.25334 0 0.46668 0.08666 0.64002 0.26s0.26 0.38668 0.26 0.64002c0 0.24-0.08666 0.44666-0.26 0.62s-0.38668 0.26-0.64002 0.26zm9.28 0h-5.34c-0.24 0-0.44666-0.08666-0.62-0.26s-0.26-0.38-0.26-0.62v-14.02c0-0.25334 0.08666-0.46334 0.26-0.63s0.38-0.25 0.62-0.25c0.25334 0 0.46334 0.08334 0.63 0.25s0.25 0.37666 0.25 0.63v13.14h4.46c0.25334 0 0.46668 0.08666 0.64002 0.26s0.26 0.38 0.26 0.62-0.08666 0.44666-0.26 0.62-0.38668 0.26-0.64002 0.26zm9.92 0c-1.0933 0-2.12-0.20666-3.08-0.62s-1.7967-0.97668-2.51-1.69-1.2767-1.55-1.69-2.51-0.62-1.9867-0.62-3.08c0-1.08 0.20666-2.1 0.62-3.06s0.97668-1.7967 1.69-2.51 1.55-1.2767 2.51-1.69 1.9867-0.62 3.08-0.62c1.08 0 2.1 0.20666 3.06 0.62s1.7967 0.97668 2.51 1.69 1.2767 1.55 1.69 2.51 0.62 1.98 0.62 3.06c0 1.0933-0.20666 2.12-0.62 3.08s-0.97668 1.7967-1.69 2.51-1.55 1.2767-2.51 1.69-1.98 0.62-3.06 0.62zm0-14.02c-0.84 0-1.6333 0.16-2.38 0.48s-1.4 0.75666-1.96 1.31-1 1.2033-1.32 1.95-0.48 1.54-0.48 2.38 0.16 1.6333 0.48 2.38 0.76 1.4 1.32 1.96 1.2133 1 1.96 1.32 1.54 0.48 2.38 0.48 1.6333-0.16 2.38-0.48 1.3967-0.76 1.95-1.32 0.99-1.2133 1.31-1.96 0.48-1.54 0.48-2.38-0.16-1.6333-0.48-2.38-0.75666-1.3967-1.31-1.95-1.2033-0.99-1.95-1.31-1.54-0.48-2.38-0.48zm15.2 7.08-2.64-3.9062e-5v6.06c0 0.24-0.08666 0.44666-0.26 0.62s-0.38 0.26-0.62 0.26c-0.25334 0-0.46668-0.08666-0.64002-0.26s-0.26-0.38-0.26-0.62v-14.02c0-0.24 0.08666-0.44666 0.26-0.62s0.38668-0.26 0.64002-0.26h3.52c0.61334 0 1.19 0.11666 1.73 0.35s1.01 0.55 1.41 0.95 0.71666 0.86666 0.95 1.4 0.35 1.1067 0.35 1.72-0.11666 1.1867-0.35 1.72-0.55 1-0.95 1.4-0.87 0.71666-1.41 0.95-1.1167 0.35-1.73 0.35zm0-7.08h-2.64v5.3h2.64c0.36 0 0.70334-0.07 1.03-0.21s0.61-0.33 0.85-0.57 0.43-0.52 0.57-0.84 0.21-0.66 0.21-1.02-0.07-0.70334-0.21-1.03-0.33-0.61-0.57-0.85-0.52334-0.43-0.85-0.57-0.67-0.21-1.03-0.21zm14.22 14.02-6.88-1.9531e-5c-0.25334 0-0.46668-0.08666-0.64002-0.26s-0.26-0.38-0.26-0.62v-0.04-0.04-13.94c0-0.24 0.08666-0.44666 0.26-0.62s0.38668-0.26 0.64002-0.26h6.88c0.25334 0 0.46668 0.08666 0.64002 0.26s0.26 0.38 0.26 0.62c0 0.25334-0.08666 0.46334-0.26 0.63s-0.38668 0.25-0.64002 0.25h-6v5.1h5.06c0.24 0 0.44666 0.08334 0.62 0.25s0.26 0.37666 0.26 0.63c0 0.24-0.08666 0.44666-0.26 0.62s-0.38 0.26-0.62 0.26h-5.06v5.38h6c0.25334 0 0.46668 0.08666 0.64002 0.26s0.26 0.38668 0.26 0.64002c0 0.24-0.08666 0.44666-0.26 0.62s-0.38668 0.26-0.64002 0.26zm7.48-6.94-0.24-3.9062e-5 0.26-0.46 3.62 6.06c0.08 0.14666 0.12 0.3 0.12 0.46 0 0.24-0.08666 0.44666-0.26 0.62s-0.38 0.26-0.62 0.26c-0.16 0-0.31-0.04-0.45-0.12s-0.25-0.18666-0.33-0.32l-3.88-6.5h-0.86v6.06c0 0.24-0.08666 0.44666-0.26 0.62s-0.38 0.26-0.62 0.26c-0.25334 0-0.46668-0.08666-0.64002-0.26s-0.26-0.38-0.26-0.62v-14.02c0-0.24 0.08666-0.44666 0.26-0.62s0.38668-0.26 0.64002-0.26h3.52c0.61334 0 1.19 0.11666 1.73 0.35s1.01 0.55 1.41 0.95 0.71666 0.86666 0.95 1.4 0.35 1.1067 0.35 1.72-0.11666 1.1867-0.35 1.72-0.55 1-0.95 1.4-0.87 0.71666-1.41 0.95-1.1167 0.35-1.73 0.35zm0-7.08h-2.64v5.3h2.64c0.36 0 0.70334-0.07 1.03-0.21s0.61-0.33 0.85-0.57 0.43-0.52 0.57-0.84 0.21-0.66 0.21-1.02-0.07-0.70334-0.21-1.03-0.33-0.61-0.57-0.85-0.52334-0.43-0.85-0.57-0.67-0.21-1.03-0.21z"/>
</g>
</svg>
